<svg xmlns="http://www.w3.org/2000/svg" width="51" height="51">
    <path fill="#FF002F" fill-rule="evenodd" d="M35.026 24.971a.566.566 0 0 1-.659-.464 9.56 9.56 0 0 0-2.693-5.188 9.602 9.602 0 0 0-5.194-2.688.574.574 0 0 1-.469-.659.568.568 0 0 1 .655-.464 10.738 10.738 0 0 1 5.812 3.009 10.711 10.711 0 0 1 3.013 5.804.558.558 0 0 1-.465.65zm-8.516-5.837a6.523 6.523 0 0 1 3.529 1.828 6.502 6.502 0 0 1 1.83 3.524.57.57 0 0 1-.566.667.568.568 0 0 1-.563-.473 5.375 5.375 0 0 0-1.513-2.912 5.357 5.357 0 0 0-2.916-1.511.565.565 0 0 1-.461-.659.574.574 0 0 1 .66-.464zm-3.788 3.761c-.312.316-.634.646-.98.962.258.569.613 1.131 1.141 1.798 1.091 1.339 2.228 2.373 3.479 3.166.122.076.266.148.418.224.106.055.216.11.325.169l1.336-1.33c.427-.427.926-.65 1.446-.65.524 0 1.018.228 1.428.654l2.321 2.326c.427.422.651.925.651 1.448 0 .519-.22 1.026-.639 1.461-.181.189-.367.371-.549.544-.266.257-.52.498-.74.764-.004.009-.012.013-.017.021-.642.696-1.462 1.047-2.438 1.047-.085 0-.178-.004-.267-.008-1.449-.093-2.747-.638-3.719-1.098a19.868 19.868 0 0 1-6.623-5.179c-1.526-1.833-2.549-3.542-3.234-5.386-.279-.751-.642-1.9-.541-3.133a3.09 3.09 0 0 1 .917-1.963l1.437-1.447.009-.008c.423-.406.921-.621 1.437-.621s1.006.215 1.416.621c.275.253.541.523.795.784.126.135.262.271.393.402l1.153 1.152c.888.886.888 2.035 0 2.921-.118.118-.236.241-.355.359zm-.448-2.474l-1.153-1.152-.402-.41a21.583 21.583 0 0 0-.761-.755l-.012-.013c-.136-.135-.351-.295-.618-.295-.215 0-.435.105-.642.299l-1.441 1.44c-.351.35-.541.759-.584 1.253-.063.773.081 1.592.474 2.643.638 1.722 1.602 3.326 3.043 5.061a18.777 18.777 0 0 0 6.239 4.88c.874.418 2.041.907 3.296.987.064.005.131.005.195.005.659 0 1.162-.216 1.589-.671.262-.309.541-.583.816-.845.182-.177.351-.338.515-.515.431-.447.431-.891-.004-1.321l-2.329-2.326-.008-.008c-.131-.144-.347-.308-.609-.308-.266 0-.494.173-.638.316l-1.446 1.444c-.071.071-.291.291-.642.291a.913.913 0 0 1-.418-.106c-.017-.008-.034-.021-.051-.029a5.313 5.313 0 0 0-.419-.224 5.8 5.8 0 0 1-.519-.282c-1.357-.857-2.587-1.976-3.754-3.411l-.004-.005c-.642-.814-1.065-1.498-1.365-2.224l-.013-.038c-.076-.241-.144-.595.22-.958.004-.009.013-.013.021-.022.368-.329.706-.667 1.061-1.029.123-.119.241-.241.363-.363.448-.447.448-.861 0-1.309z"/>
    <path fill="none" stroke="#FF002E" d="M25.5 3.5c12.15 0 22 9.85 22 22s-9.85 22-22 22-22-9.85-22-22 9.85-22 22-22z"/>
</svg>
