<svg xmlns="http://www.w3.org/2000/svg" width="51" height="51">
    <path fill="#F1CBD2" fill-opacity="0" fill-rule="evenodd" stroke="#FF002E" d="M25.5 3.5c12.15 0 22 9.85 22 22s-9.85 22-22 22-22-9.85-22-22 9.85-22 22-22z"/>
    <path fill="#FF002F" fill-rule="evenodd" d="M34.3 33.258a.55.55 0 0 1-.215.261c-.124.079-3.1 1.98-8.079 1.98-4.979 0-7.954-1.897-8.079-1.98a.534.534 0 0 1-.215-.261c-.219-.555-.215-1.66-.211-1.876v-.012c.004-.033.004-.067.004-.103.025-.817.079-2.734 1.875-3.352l.041-.012c1.875-.476 3.419-1.553 3.436-1.566a.559.559 0 1 1 .641.916c-.07.046-1.717 1.197-3.778 1.727-.965.344-1.072 1.375-1.101 2.319 0 .038-.005.071-.005.104-.008.373.021.948.087 1.279.675.382 3.32 1.703 7.301 1.703 3.998 0 6.626-1.317 7.297-1.698.066-.332.09-.907.086-1.28-.004-.033-.004-.066-.004-.104-.029-.944-.136-1.975-1.101-2.319-2.061-.53-3.708-1.677-3.778-1.727a.559.559 0 1 1 .641-.915c.017.012 1.569 1.089 3.435 1.565l.042.013c1.796.613 1.85 2.53 1.875 3.35 0 .037.004.071.004.104v.012c.004.216.008 1.322-.199 1.872zm-8.24-6.982h-.132c-1.213-.021-2.194-.448-2.914-1.264-1.594-1.797-1.329-4.878-1.3-5.172.104-2.224 1.163-3.28 2.032-3.773.865-.493 1.768-.568 2.227-.568h.07c.836.016 1.586.215 2.227.584.861.493 1.904 1.549 2.007 3.757.029.294.294 3.375-1.299 5.172-.725.816-1.705 1.243-2.918 1.264zm3.108-6.333c-.004-.008-.004-.021-.004-.033-.128-2.808-2.028-3.264-3.145-3.288h-.05c-.902 0-3.009.318-3.145 3.288 0 .008-.005.02-.005.033-.004.025-.285 2.854 1.027 4.328.517.588 1.217.878 2.127.886h.041c.915-.008 1.61-.298 2.132-.886 1.316-1.483 1.026-4.299 1.022-4.328z"/>
</svg>
